<?xml version="1.0" encoding="iso-8859-1"?>
<!-- Generator: Adobe Illustrator 21.1.0, SVG Export Plug-In . SVG Version: 6.00 Build 0)  -->
<svg version="1.1" id="Layer_1" xmlns="http://www.w3.org/2000/svg" xmlns:xlink="http://www.w3.org/1999/xlink" x="0px" y="0px"
	 viewBox="0 0 101.026 101.026" style="enable-background:new 0 0 101.026 101.026;" xml:space="preserve">
<g>
	<path d="M83.388,63.888c-0.829,0-1.5,0.671-1.5,1.5v18.5h-63v-18.5c0-0.829-0.671-1.5-1.5-1.5s-1.5,0.671-1.5,1.5v20
		c0,0.829,0.671,1.5,1.5,1.5h66c0.829,0,1.5-0.671,1.5-1.5v-20C84.888,64.56,84.217,63.888,83.388,63.888z"/>
	<path d="M49.328,69.449c0.293,0.293,0.677,0.439,1.061,0.439s0.768-0.146,1.061-0.439l13-13c0.586-0.585,0.586-1.536,0-2.121
		c-0.586-0.586-1.535-0.586-2.121,0L51.89,64.767V8.388c0-0.829-0.671-1.5-1.5-1.5s-1.5,0.671-1.5,1.5v56.379L38.451,54.328
		c-0.586-0.586-1.535-0.586-2.121,0c-0.586,0.585-0.586,1.536,0,2.121L49.328,69.449z"/>
</g>
</svg>
